<?xml version="1.0" standalone="no"?>  <!DOCTYPE svg PUBLIC "-//W3C//DTD SVG 20010904//EN"  
 "http://www.w3.org/TR/2001/REC-SVG-20010904/DTD/svg10.dtd">  <svg version="1.0" xmlns="http://www.w3.org/2000/svg"  
width="65px" height="65px" viewBox="0 0 654.000000 1088.000000"  
preserveAspectRatio="xMidYMid meet">

<g transform="translate(0.000000,1088.000000) scale(0.100000,-0.100000)"  
fill="#008000" stroke="none">
<path d="M2429 10663 c0 -49 0 -229 0 -401 l1 -312 -22 -9 c-13 -5 -61 -14  
-108 -21 -403 -54 -843 -236 -1125 -465 -397 -322 -737 -780 -918 -1235 -352  
-884 -154 -1876 487 -2442 207 -183 470 -358 751 -501 98 -49 324 -157 331  
-157 2 0 34 -14 71 -31 75 -35 368 -151 441 -175 26 -9 57 -22 69 -30 l22 -14  
1 -1651 0 -1650 -23 7 c-55 17 -296 159 -427 251 -41 29 -82 53 -90 53 -8 0  
-26 9 -40 20 -14 11 -33 20 -42 20 -22 0 -58 38 -58 61 0 10 -49 60 -108 112  
-255 224 -534 544 -717 822 -105 160 -157 249 -244 423 l-61 122 -58 0 -58 0  
4 -120 c7 -196 -23 -457 -94 -810 -62 -311 -189 -792 -289 -1100 -33 -98 -41  
-136 -32 -142 20 -12 85 -20 101 -11 14 8 289 347 344 424 15 21 37 43 49 50  
20 11 29 7 80 -33 227 -176 610 -385 945 -514 118 -46 412 -145 458 -155 19  
-4 71 -17 115 -28 44 -12 111 -29 149 -37 38 -8 75 -19 83 -25 10 -9 13 -95  
13 -429 0 -372 2 -419 16 -424 31 -12 469 -7 482 6 9 9 12 106 12 372 0 199 3  
372 7 385 6 22 9 23 57 16 28 -4 177 -9 331 -10 l280 -2 5 -384 5 -384 249 -3  
c193 -2 251 1 258 10 4 7 8 196 8 420 0 277 3 409 11 413 5 4 63 20 127 35  
206 50 403 114 542 177 212 95 382 191 530 298 117 86 151 113 240 195 312  
285 588 721 739 1168 41 120 106 376 120 467 6 39 16 106 23 150 17 110 16  
516 -1 625 -71 447 -208 761 -458 1051 -334 386 -851 695 -1653 987 l-215 78  
-3 1532 c-1 1144 1 1532 9 1532 21 0 235 -116 330 -180 414 -275 755 -691 994  
-1214 54 -118 49 -115 170 -119 l60 -2 6 185 c4 102 12 221 19 265 6 44 15  
110 20 146 43 316 141 739 230 992 16 47 30 93 30 102 0 9 -13 21 -31 27 -17  
6 -50 21 -73 33 l-41 22 -161 -106 c-89 -58 -182 -116 -207 -129 l-44 -23  
-254 124 c-336 166 -617 276 -970 381 l-85 26 -18 69 c-20 78 -19 248 4 636 8  
121 10 232 7 248 l-7 27 -253 -2 -252 -3 -2 -410 c-2 -225 -3 -418 -3 -429 0  
-16 -5 -18 -37 -12 -111 20 -336 46 -466 56 -211 15 -198 9 -212 97 -6 39 -5  
41 14 36 l21 -5 -2 333 -3 334 -252 3 -253 2 -1 -87z m1238 -105 c-3 -8 -6 -5  
-6 6 -1 11 2 17 5 13 3 -3 4 -12 1 -19z m-202 -1132 c66 -7 128 -17 138 -21  
16 -7 17 -89 17 -1532 l0 -1524 -22 7 c-116 35 -626 206 -638 214 -13 8 -15  
178 -18 1415 -1 934 1 1412 8 1425 6 11 24 20 43 23 76 9 362 5 472 -7z  
m-1035 -1381 c0 -846 -3 -1255 -10 -1255 -17 0 -209 99 -315 163 -345 207  
-581 438 -708 692 -97 195 -126 376 -91 577 27 156 70 259 170 410 168 252  
446 470 794 620 30 13 66 29 80 35 14 7 37 12 52 12 l27 1 1 -1255z m868  
-3460 l322 -107 0 -1574 0 -1573 -36 -7 c-69 -13 -383 3 -509 26 -66 11 -122  
23 -124 26 -8 8 -14 3249 -7 3289 5 22 12 34 19 32 7 -3 157 -53 335 -112z  
m960 -360 c347 -186 614 -451 781 -775 241 -468 223 -935 -51 -1339 -103 -151  
-348 -371 -555 -500 -96 -59 -257 -141 -278 -141 -13 0 -15 160 -15 1400 0  
1329 1 1400 17 1400 10 0 55 -20 101 -45z"/>
</g>
</svg>